<?xml version="1.0" encoding="UTF-8"?>
<svg xmlns="http://www.w3.org/2000/svg">
    <defs>
        <linearGradient id="logo-gradient" x1="0" y1="0" x2="1" y2="1">
            <stop offset="0" stop-color="#3c53c7"/>
            <stop offset="1" stop-color="#6d67fd"/>
        </linearGradient>
    </defs>
    <symbol id="logo" viewBox="47.797 14.063 439.4 467.3">
        <path d="M238.286 220.55c34.5 0 62.5 28.001 62.5 62.5 0 34.5-28.001 62.5-62.5 62.5-34.5 0-62.5-28.001-62.5-62.5 0-34.5 28.001-62.5 62.5-62.5M108.797 360.33c33.12 0 60 26.88 60 60s-26.88 60-60 60-60-26.88-60-60 26.88-60 60-60m314.862-91.262c34.5 0 62.5 28 62.5 62.5s-28 62.5-62.5 62.5-62.5-28-62.5-62.5 28-62.5 62.5-62.5M270.9 385.579c16.498 1.443 28.715 16.003 27.272 32.5s-16.004 28.715-32.5 27.271c-16.498-1.443-28.715-16.003-27.272-32.5s16.003-28.715 32.5-27.271M113.852 217.886c25.417-.888 46.765 19.02 47.653 44.436.887 25.417-19.02 46.765-44.437 47.653s-46.765-19.02-47.652-44.437 19.02-46.765 44.436-47.652M338.13 151.59c25.417-.888 46.765 19.02 47.653 44.436.887 25.417-19.02 46.765-44.437 47.653s-46.765-19.02-47.652-44.437 19.02-46.765 44.436-47.652M208.434 15.063c34.5 0 62.5 28 62.5 62.5s-28 62.5-62.5 62.5-62.5-28-62.5-62.5 28-62.5 62.5-62.5m-51.981 244.55 29.43 5.318-5.202 21.572-31.43-9.536m126.643-32.794 24.675-27.072 14.302 17.374-29.55 26.755m-50.186-133.487 9.952 95.728-31.751 3.317-17.061-92.41M264.012 340l10.359 50.501-23.359 2.01-7.438-50.605m-28.959-16.824-55.645 67.057-24.836-24.837 53.303-51.998m110.377-28.368 76.626 11.298-8.514 35.53-75.41-20.069"/>
    </symbol>

    <use href="#logo" fill="url(#logo-gradient)" />
</svg>