<svg xmlns="http://www.w3.org/2000/svg" style="display: none;">
    <defs>
        <path id="avatarMask" d="M152.18,175H31.1c-12.92,0-23.4-11.34-23.4-25.32L-0.19,26.68C-0.19,11.94,11.29,0,25.46,0h132.71c14.16,0,25.64,11.94,25.64,26.68l-8.24,123.01C175.58,163.66,165.1,175,152.18,175z"/>
        <symbol id="i1" viewBox="0 0 448 512">
            <path d="M395.5 177.5c0 33.8-27.5 61-61 61-33.8 0-61-27.3-61-61s27.3-61 61-61c33.5 0 61 27.2 61 61zm52.5.2c0 63-51 113.8-113.7 113.8L225 371.3c-4 43-40.5 76.8-84.5 76.8-40.5 0-74.7-28.8-83-67L0 358V250.7L97.2 290c15.1-9.2 32.2-13.3 52-11.5l71-101.7c.5-62.3 51.5-112.8 114-112.8C397 64 448 115 448 177.7zM203 363c0-34.7-27.8-62.5-62.5-62.5-4.5 0-9 .5-13.5 1.5l26 10.5c25.5 10.2 38 39 27.7 64.5-10.2 25.5-39.2 38-64.7 27.5-10.2-4-20.5-8.3-30.7-12.2 10.5 19.7 31.2 33.2 55.2 33.2 34.7 0 62.5-27.8 62.5-62.5zm207.5-185.3c0-42-34.3-76.2-76.2-76.2-42.3 0-76.5 34.2-76.5 76.2 0 42.2 34.3 76.2 76.5 76.2 41.9.1 76.2-33.9 76.2-76.2z"/>
        </symbol>
        <symbol id="i2" viewBox="0 0 24 24">
            <path d="M11.981 0C5.72 0 .581 2.231.02 5.081l6.675 1.257c.544-.17 1.162-.244 1.8-.244l3.131-1.875c-.037-.469.244-.956.881-1.35.9-.581 2.307-.9 3.732-.9a8.582 8.582 0 012.812.412c2.1.713 2.569 2.082 1.069 3.057-.956.618-2.494.937-4.013.9l-4.125 1.48c-.037.3-.243.582-.637.845-1.106.712-3.263.88-4.8.356-.675-.225-1.125-.563-1.313-.9L.47 7.2c.431.675 1.125 1.294 2.025 1.838C.938 9.938 0 11.062 0 12.28c0 1.2.9 2.307 2.419 3.206C.9 16.37 0 17.476 0 18.675 0 21.619 5.363 24 12 24c6.619 0 12-2.381 12-5.325 0-1.2-.9-2.306-2.419-3.188C23.1 14.588 24 13.482 24 12.282c0-1.219-.938-2.362-2.512-3.262 1.556-.956 2.493-2.138 2.493-3.413 0-3.093-5.381-5.606-12-5.606zm4.275 2.663c-.975.018-1.912.225-2.512.618-1.031.675-.713 1.594.712 2.082 1.425.487 3.394.337 4.425-.338 1.032-.675.713-1.594-.712-2.062a6.376 6.376 0 00-1.913-.282zm.057.318c1.387 0 2.493.525 2.493 1.163 0 .637-1.106 1.162-2.493 1.162-1.388 0-2.494-.525-2.494-1.162 0-.638 1.106-1.163 2.494-1.163zM8.493 6.45c-.3.019-.58.038-.862.075l1.707.319a2.03.94 0 11-1.52 1.744l-1.668-.32c.188.17.45.32.806.45 1.2.413 2.888.282 3.75-.28.863-.563.6-1.35-.6-1.744-.487-.169-1.068-.244-1.612-.244zm11.944 3.113v1.743c0 2.063-3.787 3.732-8.437 3.732-4.669 0-8.437-1.67-8.437-3.732V9.581c2.156.994 5.137 1.613 8.418 1.613 3.3 0 6.3-.619 8.475-1.631zm0 6.487v1.65c0 2.063-3.787 3.731-8.437 3.731-4.669 0-8.437-1.668-8.437-3.731v-1.65c2.175.956 5.137 1.538 8.437 1.538s6.281-.582 8.438-1.538z" />
        </symbol>
        <symbol id="i3" viewBox="0 0 24 24">
            <path d="M23 12 20.56 9.22 20.9 5.54 17.29 4.72 15.4 1.54 12 3 8.6 1.54 6.71 4.72 3.1 5.53 3.44 9.21 1 12 3.44 14.78 3.1 18.47 6.71 19.29 8.6 22.47 12 21 15.4 22.46 17.29 19.28 20.9 18.46 20.56 14.78 23 12M10 17 6 13 7.41 11.59 10 14.17 16.59 7.58 18 9 10 17Z"/>
        </symbol>
        <symbol id="i4" viewBox="0 0 24 24">
            <path d="M23,12L20.56,9.22L20.9,5.54L17.29,4.72L15.4,1.54L12,3L8.6,1.54L6.71,4.72L3.1,5.53L3.44,9.21L1,12L3.44,14.78L3.1,18.47L6.71,19.29L8.6,22.47L12,21L15.4,22.46L17.29,19.28L20.9,18.46L20.56,14.78L23,12M13,17H11V15H13V17M13,13H11V7H13V13Z"/>
        </symbol>
        <symbol id="i5" viewBox="0 0 24 24" fill="none" stroke-width="2" stroke-linecap="round" stroke-linejoin="round">
            <path d="M16 21v-2a4 4 0 0 0-4-4H6a4 4 0 0 0-4 4v2"/>
            <circle cx="9" cy="7" r="4"/>
            <path d="M22 21v-2a4 4 0 0 0-3-3.87"/>
            <path d="M16 3.13a4 4 0 0 1 0 7.75"/>
        </symbol>
        <symbol id="i6" viewBox="0 0 24 24" fill="none" stroke-width="2" stroke-linecap="round" stroke-linejoin="round">
            <polygon points="13 2 3 14 12 14 11 22 21 10 12 10 13 2"/>
        </symbol>
        <symbol id="i7" viewBox="0 0 24 24" fill="none" stroke-width="2" stroke-linecap="round" stroke-linejoin="round">
            <path d="M9 20H4a2 2 0 0 1-2-2V5a2 2 0 0 1 2-2h3.9a2 2 0 0 1 1.69.9l.81 1.2a2 2 0 0 0 1.67.9H20a2 2 0 0 1 2 2v1"/>
            <path d="M12 10v4h4"/>
            <path d="m12 14 1.5-1.5c.9-.9 2.2-1.5 3.5-1.5s2.6.6 3.5 1.5c.4.4.8 1 1 1.5"/>
            <path d="M22 22v-4h-4"/>
            <path d="m22 18-1.5 1.5c-.9.9-2.1 1.5-3.5 1.5s-2.6-.6-3.5-1.5c-.4-.4-.8-1-1-1.5"/>
        </symbol>
        <symbol id="i8" viewBox="0 0 512 512">
            <path d="M471.6 21.7c-21.9-21.9-57.3-21.9-79.2 0L362.3 51.7l97.9 97.9 30.1-30.1c21.9-21.9 21.9-57.3 0-79.2L471.6 21.7zm-299.2 220c-6.1 6.1-10.8 13.6-13.5 21.9l-29.6 88.8c-2.9 8.6-.6 18.1 5.8 24.6s15.9 8.7 24.6 5.8l88.8-29.6c8.2-2.7 15.7-7.4 21.9-13.5L437.7 172.3 339.7 74.3 172.4 241.7zM96 64C43 64 0 107 0 160V416c0 53 43 96 96 96H352c53 0 96-43 96-96V320c0-17.7-14.3-32-32-32s-32 14.3-32 32v96c0 17.7-14.3 32-32 32H96c-17.7 0-32-14.3-32-32V160c0-17.7 14.3-32 32-32h96c17.7 0 32-14.3 32-32s-14.3-32-32-32H96z"/>
        </symbol>
        <symbol id="i9" viewBox="0 0 512 512">
            <path d="M416 448h-84c-6.6 0-12-5.4-12-12v-40c0-6.6 5.4-12 12-12h84c17.7 0 32-14.3 32-32V160c0-17.7-14.3-32-32-32h-84c-6.6 0-12-5.4-12-12V76c0-6.6 5.4-12 12-12h84c53 0 96 43 96 96v192c0 53-43 96-96 96zm-47-201L201 79c-15-15-41-4.5-41 17v96H24c-13.3 0-24 10.7-24 24v96c0 13.3 10.7 24 24 24h136v96c0 21.5 26 32 41 17l168-168c9.3-9.4 9.3-24.6 0-34z"/>
        </symbol>
        <symbol id="i10" viewBox="0 0 24 24">
            <path d="M5,3C3.89,3 3,3.89 3,5V19A2,2 0 0,0 5,21H19A2,2 0 0,0 21,19V12H19V19H5V5H12V3H5M17.78,4C17.61,4 17.43,4.07 17.3,4.2L16.08,5.41L18.58,7.91L19.8,6.7C20.06,6.44 20.06,6 19.8,5.75L18.25,4.2C18.12,4.07 17.95,4 17.78,4M15.37,6.12L8,13.5V16H10.5L17.87,8.62L15.37,6.12Z"/>
        </symbol>
        <symbol id="i11" viewBox="0 0 512 512">
            <path d="M505 442.7L405.3 343c-4.5-4.5-10.6-7-17-7H372c27.6-35.3 44-79.7 44-128C416 93.1 322.9 0 208 0S0 93.1 0 208s93.1 208 208 208c48.3 0 92.7-16.4 128-44v16.3c0 6.4 2.5 12.5 7 17l99.7 99.7c9.4 9.4 24.6 9.4 33.9 0l28.3-28.3c9.4-9.4 9.4-24.6.1-34zM208 336c-70.7 0-128-57.2-128-128 0-70.7 57.2-128 128-128 70.7 0 128 57.2 128 128 0 70.7-57.2 128-128 128z"/>
        </symbol>
        <symbol id="i12" viewBox="0 0 448 512">
            <path d="M256 80c0-17.7-14.3-32-32-32s-32 14.3-32 32V224H48c-17.7 0-32 14.3-32 32s14.3 32 32 32H192V432c0 17.7 14.3 32 32 32s32-14.3 32-32V288H400c17.7 0 32-14.3 32-32s-14.3-32-32-32H256V80z"/>
        </symbol>
        <symbol id="i13" viewBox="0 0 24 24">
            <path d="M16,12V4H17V2H7V4H8V12L6,14V16H11.2V22H12.8V16H18V14L16,12Z" />
        </symbol>
        <symbol id="i14" viewBox="0 0 24 24">
            <path d="M19,4H15.5L14.5,3H9.5L8.5,4H5V6H19M6,19A2,2 0 0,0 8,21H16A2,2 0 0,0 18,19V7H6V19Z" />
        </symbol>
        <symbol id="i15" viewBox="0 0 448 512">
            <path d="M224 512c35.32 0 63.97-28.65 63.97-64H160.03c0 35.35 28.65 64 63.97 64zm215.39-149.71c-19.32-20.76-55.47-51.99-55.47-154.29 0-77.7-54.48-139.9-127.94-155.16V32c0-17.67-14.32-32-31.98-32s-31.98 14.33-31.98 32v20.84C118.56 68.1 64.08 130.3 64.08 208c0 102.3-36.15 133.53-55.47 154.29-6 6.45-8.66 14.16-8.61 21.71.11 16.4 12.98 32 32.1 32h383.8c19.12 0 32-15.6 32.1-32 .05-7.55-2.61-15.27-8.61-21.71z" />
        </symbol>
        <symbol id="i16" viewBox="0 0 20 20">
            <path fill-rule="evenodd" d="M7.84 1.804A1 1 0 018.82 1h2.36a1 1 0 01.98.804l.331 1.652a6.993 6.993 0 011.929 1.115l1.598-.54a1 1 0 011.186.447l1.18 2.044a1 1 0 01-.205 1.251l-1.267 1.113a7.047 7.047 0 010 2.228l1.267 1.113a1 1 0 01.206 1.25l-1.18 2.045a1 1 0 01-1.187.447l-1.598-.54a6.993 6.993 0 01-1.929 1.115l-.33 1.652a1 1 0 01-.98.804H8.82a1 1 0 01-.98-.804l-.331-1.652a6.993 6.993 0 01-1.929-1.115l-1.598.54a1 1 0 01-1.186-.447l-1.18-2.044a1 1 0 01.205-1.251l1.267-1.114a7.05 7.05 0 010-2.227L1.821 7.773a1 1 0 01-.206-1.25l1.18-2.045a1 1 0 011.187-.447l1.598.54A6.993 6.993 0 017.51 3.456l.33-1.652zM10 13a3 3 0 100-6 3 3 0 000 6z"/>
        </symbol>
        <symbol id="i17" viewBox="0 0 496 512">
            <path d="M496 256c0 137-111.2 248-248.4 248-113.8 0-209.6-76.3-239-180.4l95.2 39.3c6.4 32.1 34.9 56.4 68.9 56.4 39.2 0 71.9-32.4 70.2-73.5l84.5-60.2c52.1 1.3 95.8-40.9 95.8-93.5 0-51.6-42-93.5-93.7-93.5s-93.7 42-93.7 93.5v1.2L176.6 279c-15.5-.9-30.7 3.4-43.5 12.1L0 236.1C10.2 108.4 117.1 8 247.6 8 384.8 8 496 119 496 256zM155.7 384.3l-30.5-12.6a52.79 52.79 0 0 0 27.2 25.8c26.9 11.2 57.8-1.6 69-28.4 5.4-13 5.5-27.3.1-40.3-5.4-13-15.5-23.2-28.5-28.6-12.9-5.4-26.7-5.2-38.9-.6l31.5 13c19.8 8.2 29.2 30.9 20.9 50.7-8.3 19.9-31 29.2-50.8 21zm173.8-129.9c-34.4 0-62.4-28-62.4-62.3s28-62.3 62.4-62.3 62.4 28 62.4 62.3-27.9 62.3-62.4 62.3zm.1-15.6c25.9 0 46.9-21 46.9-46.8 0-25.9-21-46.8-46.9-46.8s-46.9 21-46.9 46.8c.1 25.8 21.1 46.8 46.9 46.8z"/>
        </symbol>
        <symbol id="i18" viewBox="0 0 512 512">
            <path d="M483.13 245.38C461.92 149.49 430 98.31 382.65 84.33A107.13 107.13 0 0 0 352 80c-13.71 0-25.65 3.34-38.28 6.88C298.5 91.15 281.21 96 256 96s-42.51-4.84-57.76-9.11C185.6 83.34 173.67 80 160 80a115.74 115.74 0 0 0-31.73 4.32c-47.1 13.92-79 65.08-100.52 161C4.61 348.54 16 413.71 59.69 428.83a56.62 56.62 0 0 0 18.64 3.22c29.93 0 53.93-24.93 70.33-45.34 18.53-23.1 40.22-34.82 107.34-34.82 59.95 0 84.76 8.13 106.19 34.82 13.47 16.78 26.2 28.52 38.9 35.91 16.89 9.82 33.77 12 50.16 6.37 25.82-8.81 40.62-32.1 44-69.24 2.57-28.48-1.39-65.89-12.12-114.37zM208 240h-32v32a16 16 0 0 1-32 0v-32h-32a16 16 0 0 1 0-32h32v-32a16 16 0 0 1 32 0v32h32a16 16 0 0 1 0 32zm84 4a20 20 0 1 1 20-20 20 20 0 0 1-20 20zm44 44a20 20 0 1 1 20-19.95A20 20 0 0 1 336 288zm0-88a20 20 0 1 1 20-20 20 20 0 0 1-20 20zm44 44a20 20 0 1 1 20-20 20 20 0 0 1-20 20z"/>
        </symbol>
        <symbol id="i19" viewBox="0 0 384 512">
            <path d="M173.8 5.5c11-7.3 25.4-7.3 36.4 0L228 17.2c6 3.9 13 5.8 20.1 5.4l21.3-1.3c13.2-.8 25.6 6.4 31.5 18.2l9.6 19.1c3.2 6.4 8.4 11.5 14.7 14.7L344.5 83c11.8 5.9 19 18.3 18.2 31.5l-1.3 21.3c-.4 7.1 1.5 14.2 5.4 20.1l11.8 17.8c7.3 11 7.3 25.4 0 36.4L366.8 228c-3.9 6-5.8 13-5.4 20.1l1.3 21.3c.8 13.2-6.4 25.6-18.2 31.5l-19.1 9.6c-6.4 3.2-11.5 8.4-14.7 14.7L301 344.5c-5.9 11.8-18.3 19-31.5 18.2l-21.3-1.3c-7.1-.4-14.2 1.5-20.1 5.4l-17.8 11.8c-11 7.3-25.4 7.3-36.4 0L156 366.8c-6-3.9-13-5.8-20.1-5.4l-21.3 1.3c-13.2 .8-25.6-6.4-31.5-18.2l-9.6-19.1c-3.2-6.4-8.4-11.5-14.7-14.7L39.5 301c-11.8-5.9-19-18.3-18.2-31.5l1.3-21.3c.4-7.1-1.5-14.2-5.4-20.1L5.5 210.2c-7.3-11-7.3-25.4 0-36.4L17.2 156c3.9-6 5.8-13 5.4-20.1l-1.3-21.3c-.8-13.2 6.4-25.6 18.2-31.5l19.1-9.6C65 70.2 70.2 65 73.4 58.6L83 39.5c5.9-11.8 18.3-19 31.5-18.2l21.3 1.3c7.1 .4 14.2-1.5 20.1-5.4L173.8 5.5zM272 192a80 80 0 1 0 -160 0 80 80 0 1 0 160 0zM1.3 441.8L44.4 339.3c.2 .1 .3 .2 .4 .4l9.6 19.1c11.7 23.2 36 37.3 62 35.8l21.3-1.3c.2 0 .5 0 .7 .2l17.8 11.8c5.1 3.3 10.5 5.9 16.1 7.7l-37.6 89.3c-2.3 5.5-7.4 9.2-13.3 9.7s-11.6-2.2-14.8-7.2L74.4 455.5l-56.1 8.3c-5.7 .8-11.4-1.5-15-6s-4.3-10.7-2.1-16zm248 60.4L211.7 413c5.6-1.8 11-4.3 16.1-7.7l17.8-11.8c.2-.1 .4-.2 .7-.2l21.3 1.3c26 1.5 50.3-12.6 62-35.8l9.6-19.1c.1-.2 .2-.3 .4-.4l43.2 102.5c2.2 5.3 1.4 11.4-2.1 16s-9.3 6.9-15 6l-56.1-8.3-32.2 49.2c-3.2 5-8.9 7.7-14.8 7.2s-11-4.3-13.3-9.7z" />
        </symbol>
        <symbol id="i20" viewBox="0 0 24 24">
            <path d="M12 2C17.5 2 22 6.5 22 12S17.5 22 12 22 2 17.5 2 12 6.5 2 12 2M12 4C10.1 4 8.4 4.6 7.1 5.7L18.3 16.9C19.3 15.5 20 13.8 20 12C20 7.6 16.4 4 12 4M16.9 18.3L5.7 7.1C4.6 8.4 4 10.1 4 12C4 16.4 7.6 20 12 20C13.9 20 15.6 19.4 16.9 18.3Z"/>
        </symbol>
        <symbol id="i21" viewBox="0 0 448 512">
            <path d="M207.029 381.476L12.686 187.132c-9.373-9.373-9.373-24.569 0-33.941l22.667-22.667c9.357-9.357 24.522-9.375 33.901-.04L224 284.505l154.745-154.021c9.379-9.335 24.544-9.317 33.901.04l22.667 22.667c9.373 9.373 9.373 24.569 0 33.941L240.971 381.476c-9.373 9.372-24.569 9.372-33.942 0z" />
        </symbol>
        <symbol id="i22" viewBox="0 0 496 512">
            <path d="M248 104c-53 0-96 43-96 96s43 96 96 96 96-43 96-96-43-96-96-96zm0 144c-26.5 0-48-21.5-48-48s21.5-48 48-48 48 21.5 48 48-21.5 48-48 48zm0-240C111 8 0 119 0 256s111 248 248 248 248-111 248-248S385 8 248 8zm0 448c-49.7 0-95.1-18.3-130.1-48.4 14.9-23 40.4-38.6 69.6-39.5 20.8 6.4 40.6 9.6 60.5 9.6s39.7-3.1 60.5-9.6c29.2 1 54.7 16.5 69.6 39.5-35 30.1-80.4 48.4-130.1 48.4zm162.7-84.1c-24.4-31.4-62.1-51.9-105.1-51.9-10.2 0-26 9.6-57.6 9.6-31.5 0-47.4-9.6-57.6-9.6-42.9 0-80.6 20.5-105.1 51.9C61.9 339.2 48 299.2 48 256c0-110.3 89.7-200 200-200s200 89.7 200 200c0 43.2-13.9 83.2-37.3 115.9z" />
        </symbol>
        <symbol id="i23" viewBox="0 0 640 512">
            <path d="M480.07 96H160a160 160 0 1 0 114.24 272h91.52A160 160 0 1 0 480.07 96zM248 268a12 12 0 0 1-12 12h-52v52a12 12 0 0 1-12 12h-24a12 12 0 0 1-12-12v-52H84a12 12 0 0 1-12-12v-24a12 12 0 0 1 12-12h52v-52a12 12 0 0 1 12-12h24a12 12 0 0 1 12 12v52h52a12 12 0 0 1 12 12zm216 76a40 40 0 1 1 40-40 40 40 0 0 1-40 40zm64-96a40 40 0 1 1 40-40 40 40 0 0 1-40 40z" />
        </symbol>
        <symbol id="i24" viewBox="0 0 640 512">
            <path d="M192 256c61.9 0 112-50.1 112-112S253.9 32 192 32 80 82.1 80 144s50.1 112 112 112zm76.8 32h-8.3c-20.8 10-43.9 16-68.5 16s-47.6-6-68.5-16h-8.3C51.6 288 0 339.6 0 403.2V432c0 26.5 21.5 48 48 48h288c26.5 0 48-21.5 48-48v-28.8c0-63.6-51.6-115.2-115.2-115.2zM480 256c53 0 96-43 96-96s-43-96-96-96-96 43-96 96 43 96 96 96zm48 32h-3.8c-13.9 4.8-28.6 8-44.2 8s-30.3-3.2-44.2-8H432c-20.4 0-39.2 5.9-55.7 15.4 24.4 26.3 39.7 61.2 39.7 99.8v38.4c0 2.2-.5 4.3-.6 6.4H592c26.5 0 48-21.5 48-48 0-61.9-50.1-112-112-112z" />
        </symbol>
        <symbol id="i25" viewBox="0 0 24 24">
            <path d="M12 2C6.5 2 2 6.5 2 12S6.5 22 12 22 22 17.5 22 12 17.5 2 12 2M10 17L5 12L6.41 10.59L10 14.17L17.59 6.58L19 8L10 17Z" />
        </symbol>
        <symbol id="i26" viewBox="0 0 24 24">
            <path d="M17.81 4.47c-.08 0-.16-.02-.23-.06C15.66 3.42 14 3 12 3a11.43 11.43 0 0 0-5.56 1.41.51.51 0 0 1-.68-.2c-.13-.24-.04-.55.2-.68C7.82 2.5 9.86 2 12 2s4 .47 6.04 1.5c.25.15.34.45.21.69a.48.48 0 0 1-.44.28M3.5 9.72a.52.52 0 0 1-.29-.09c-.21-.16-.28-.47-.12-.7.99-1.4 2.25-2.5 3.75-3.27C10 4.04 14 4.03 17.15 5.65c1.5.77 2.76 1.85 3.75 3.25a.51.51 0 0 1-.12.7c-.23.16-.54.11-.7-.1-.9-1.28-2.04-2.27-3.39-2.96-2.87-1.47-6.54-1.47-9.4.01-1.36.7-2.5 1.7-3.4 2.95-.08.15-.23.22-.39.22m6.25 12.07c-.13 0-.25-.05-.35-.15-.87-.87-1.34-1.43-2.01-2.64-.69-1.23-1.05-2.73-1.05-4.34 0-2.97 2.54-5.39 5.66-5.39s5.66 2.42 5.66 5.39a.5.5 0 1 1-1 0c0-2.42-2.09-4.39-4.66-4.39s-4.66 1.97-4.66 4.39c0 1.44.32 2.77.93 3.84.64 1.16 1.08 1.65 1.85 2.43.19.2.19.51 0 .71-.12.1-.24.15-.37.15m7.17-1.85c-1.19 0-2.24-.3-3.1-.89-1.49-1.01-2.38-2.65-2.38-4.39a.5.5 0 1 1 1 0c0 1.41.72 2.74 1.94 3.56.71.48 1.54.71 2.54.71a6.61 6.61 0 0 0 1.04-.1c.27-.05.54.13.58.41.05.26-.13.53-.41.58a6.83 6.83 0 0 1-1.21.12M14.91 22h-.13c-1.59-.46-2.63-1.05-3.72-2.12a7.28 7.28 0 0 1-2.17-5.22c0-1.62 1.38-2.94 3.08-2.94s3.08 1.32 3.08 2.94c0 1.07.95 1.94 2.08 1.94 1.15 0 2.08-.87 2.08-1.94 0-3.77-3.25-6.83-7.25-6.83-2.84 0-5.46 1.58-6.61 4.03-.39.81-.59 1.76-.59 2.8 0 .78.07 2.01.67 3.61.1.26-.03.55-.29.64s-.55-.04-.64-.29c-.5-1.31-.73-2.62-.73-3.96 0-1.2.23-2.29.68-3.24 1.33-2.79 4.28-4.6 7.51-4.6 4.54 0 8.25 3.51 8.25 7.83 0 1.62-1.38 2.94-3.08 2.94s-3.08-1.32-3.08-2.94c0-1.07-.93-1.94-2.08-1.94s-2.08.87-2.08 1.94c0 1.71.66 3.31 1.87 4.51.95.94 1.86 1.46 3.27 1.84a.51.51 0 0 1 .35.62.49.49 0 0 1-.47.38z"/>
        </symbol>
        <symbol id="i27" viewBox="0 0 24 24" stroke-width="2" stroke-linecap="round" stroke-linejoin="round">
            <line x1="3" x2="21" y1="6" y2="6"/>
            <line x1="3" x2="21" y1="12" y2="12"/>
            <line x1="3" x2="21" y1="18" y2="18"/>
        </symbol>
        <symbol id="i28" viewBox="0 0 24 24">
            <path d="M7 14C5.9 14 5 13.1 5 12S5.9 10 7 10 9 10.9 9 12 8.1 14 7 14M12.6 10C11.8 7.7 9.6 6 7 6C3.7 6 1 8.7 1 12S3.7 18 7 18C9.6 18 11.8 16.3 12.6 14H16V18H20V14H23V10H12.6Z" />
        </symbol>
        <symbol id="i29" viewBox="0 0 24 24">
            <path d="M10 7V9H9V15H10V17H6V15H7V9H6V7H10M16 7C17.11 7 18 7.9 18 9V15C18 16.11 17.11 17 16 17H12V7M16 9H14V15H16V9Z" />
        </symbol>
        <symbol id="i30" viewBox="0 0 24 24">
            <path d="M21 5V7H3V5H21M3 17H12V15H3V17M3 12H21V10H3V12M18 14C19.11 14 20 14.9 20 16S19.11 18 18 18 16 17.11 16 16 16.9 14 18 14M14 22V21C14 19.9 15.79 19 18 19S22 19.9 22 21V22H14Z" />
        </symbol>
        <symbol id="i31" viewBox="0 0 24 24">
            <path d="M12,3A9,9 0 0,0 3,12H0L4,16L8,12H5A7,7 0 0,1 12,5A7,7 0 0,1 19,12A7,7 0 0,1 12,19C10.5,19 9.09,18.5 7.94,17.7L6.5,19.14C8.04,20.3 9.94,21 12,21A9,9 0 0,0 21,12A9,9 0 0,0 12,3M14,12A2,2 0 0,0 12,10A2,2 0 0,0 10,12A2,2 0 0,0 12,14A2,2 0 0,0 14,12Z" />
        </symbol>
        <symbol id="i32" viewBox="0 0 24 24">
            <path d="M12,9A3,3 0 0,0 9,12A3,3 0 0,0 12,15A3,3 0 0,0 15,12A3,3 0 0,0 12,9M12,17A5,5 0 0,1 7,12A5,5 0 0,1 12,7A5,5 0 0,1 17,12A5,5 0 0,1 12,17M12,4.5C7,4.5 2.73,7.61 1,12C2.73,16.39 7,19.5 12,19.5C17,19.5 21.27,16.39 23,12C21.27,7.61 17,4.5 12,4.5Z" />
        </symbol>
        <symbol id="i33" viewBox="0 0 24 24">
            <path d="M11.83,9L15,12.16C15,12.11 15,12.05 15,12A3,3 0 0,0 12,9C11.94,9 11.89,9 11.83,9M7.53,9.8L9.08,11.35C9.03,11.56 9,11.77 9,12A3,3 0 0,0 12,15C12.22,15 12.44,14.97 12.65,14.92L14.2,16.47C13.53,16.8 12.79,17 12,17A5,5 0 0,1 7,12C7,11.21 7.2,10.47 7.53,9.8M2,4.27L4.28,6.55L4.73,7C3.08,8.3 1.78,10 1,12C2.73,16.39 7,19.5 12,19.5C13.55,19.5 15.03,19.2 16.38,18.66L16.81,19.08L19.73,22L21,20.73L3.27,3M12,7A5,5 0 0,1 17,12C17,12.64 16.87,13.26 16.64,13.82L19.57,16.75C21.07,15.5 22.27,13.86 23,12C21.27,7.61 17,4.5 12,4.5C10.6,4.5 9.26,4.75 8,5.2L10.17,7.35C10.74,7.13 11.35,7 12,7Z" />
        </symbol>
        <symbol id="i34" viewBox="0 0 192 512">
            <path d="M48 80a48 48 0 1 1 96 0A48 48 0 1 1 48 80zM0 224c0-17.7 14.3-32 32-32H96c17.7 0 32 14.3 32 32V448h32c17.7 0 32 14.3 32 32s-14.3 32-32 32H32c-17.7 0-32-14.3-32-32s14.3-32 32-32H64V256H32c-17.7 0-32-14.3-32-32z" />
        </symbol>
        <symbol id="i35" viewBox="0 0 24 24">
            <path d="M13.46,12L19,17.54V19H17.54L12,13.46L6.46,19H5V17.54L10.54,12L5,6.46V5H6.46L12,10.54L17.54,5H19V6.46L13.46,12Z"/>
        </symbol>
        <symbol id="i36" viewBox="0 0 24 24">
            <path d="M13,13H11V7H13M13,17H11V15H13M12,2A10,10 0 0,0 2,12A10,10 0 0,0 12,22A10,10 0 0,0 22,12A10,10 0 0,0 12,2Z"/>
        </symbol>
        <symbol id="i37" viewBox="0 0 24 24">
            <path d="M11 7V9H13V7H11M14 17V15H13V11H10V13H11V15H10V17H14M22 12C22 17.5 17.5 22 12 22C6.5 22 2 17.5 2 12C2 6.5 6.5 2 12 2C17.5 2 22 6.5 22 12M20 12C20 7.58 16.42 4 12 4C7.58 4 4 7.58 4 12C4 16.42 7.58 20 12 20C16.42 20 20 16.42 20 12Z"/>
        </symbol>
        <symbol id="i38" viewBox="0 0 24 24">
            <path d="M12,20C7.59,20 4,16.41 4,12C4,7.59 7.59,4 12,4C16.41,4 20,7.59 20,12C20,16.41 16.41,20 12,20M12,2C6.47,2 2,6.47 2,12C2,17.53 6.47,22 12,22C17.53,22 22,17.53 22,12C22,6.47 17.53,2 12,2M14.59,8L12,10.59L9.41,8L8,9.41L10.59,12L8,14.59L9.41,16L12,13.41L14.59,16L16,14.59L13.41,12L16,9.41L14.59,8Z" />
        </symbol>
        <symbol id="i39" viewBox="0 0 24 24">
            <path d="M12 2C6.5 2 2 6.5 2 12S6.5 22 12 22 22 17.5 22 12 17.5 2 12 2M12 20C7.59 20 4 16.41 4 12S7.59 4 12 4 20 7.59 20 12 16.41 20 12 20M16.59 7.58L10 14.17L7.41 11.59L6 13L10 17L18 9L16.59 7.58Z" />
        </symbol>
        <symbol id="i40" viewBox="0 0 24 24">
            <path d="M7 7H5A2 2 0 0 0 3 9V17H5V13H7V17H9V9A2 2 0 0 0 7 7M7 11H5V9H7M14 7H10V17H12V13H14A2 2 0 0 0 16 11V9A2 2 0 0 0 14 7M14 11H12V9H14M20 9V15H21V17H17V15H18V9H17V7H21V9Z" />
        </symbol>
        <symbol id="i41" viewBox="0 0 24 24">
            <path d="M17.06 13C15.2 13 13.64 14.33 13.24 16.1C12.29 15.69 11.42 15.8 10.76 16.09C10.35 14.31 8.79 13 6.94 13C4.77 13 3 14.79 3 17C3 19.21 4.77 21 6.94 21C9 21 10.68 19.38 10.84 17.32C11.18 17.08 12.07 16.63 13.16 17.34C13.34 19.39 15 21 17.06 21C19.23 21 21 19.21 21 17C21 14.79 19.23 13 17.06 13M6.94 19.86C5.38 19.86 4.13 18.58 4.13 17S5.39 14.14 6.94 14.14C8.5 14.14 9.75 15.42 9.75 17S8.5 19.86 6.94 19.86M17.06 19.86C15.5 19.86 14.25 18.58 14.25 17S15.5 14.14 17.06 14.14C18.62 14.14 19.88 15.42 19.88 17S18.61 19.86 17.06 19.86M22 10.5H2V12H22V10.5M15.53 2.63C15.31 2.14 14.75 1.88 14.22 2.05L12 2.79L9.77 2.05L9.72 2.04C9.19 1.89 8.63 2.17 8.43 2.68L6 9H18L15.56 2.68L15.53 2.63Z" />
        </symbol>
        <symbol id="i42" viewBox="0 0 24 24">
            <path d="M12,17A2,2 0 0,0 14,15C14,13.89 13.1,13 12,13A2,2 0 0,0 10,15A2,2 0 0,0 12,17M18,8A2,2 0 0,1 20,10V20A2,2 0 0,1 18,22H6A2,2 0 0,1 4,20V10C4,8.89 4.9,8 6,8H7V6A5,5 0 0,1 12,1A5,5 0 0,1 17,6V8H18M12,3A3,3 0 0,0 9,6V8H15V6A3,3 0 0,0 12,3Z" />
        </symbol>
        <symbol id="i43" viewBox="0 0 24 24">
            <path d="M7.71,3.5L1.15,15L4.58,21L11.13,9.5M9.73,15L6.3,21H19.42L22.85,15M22.28,14L15.42,2H8.58L8.57,2L15.43,14H22.28Z" />
        </symbol>
        <symbol id="i44" viewBox="0 0 24 24">
            <path d="M12,16A2,2 0 0,1 14,18A2,2 0 0,1 12,20A2,2 0 0,1 10,18A2,2 0 0,1 12,16M12,10A2,2 0 0,1 14,12A2,2 0 0,1 12,14A2,2 0 0,1 10,12A2,2 0 0,1 12,10M12,4A2,2 0 0,1 14,6A2,2 0 0,1 12,8A2,2 0 0,1 10,6A2,2 0 0,1 12,4Z" />
        </symbol>
        <symbol id="i45" viewBox="0 0 24 24">
            <path d="M16 13v-2H7V8l-5 4 5 4v-3z"/>
            <path d="M20 3h-9c-1.103 0-2 .897-2 2v4h2V5h9v14h-9v-4H9v4c0 1.103.897 2 2 2h9c1.103 0 2-.897 2-2V5c0-1.103-.897-2-2-2z"/>
        </symbol>
        <symbol id="i46" viewBox="0 0 24 24">
            <path d="M19,19H5V5H15V3H5C3.89,3 3,3.89 3,5V19A2,2 0 0,0 5,21H19A2,2 0 0,0 21,19V11H19M7.91,10.08L6.5,11.5L11,16L21,6L19.59,4.58L11,13.17L7.91,10.08Z"/>
        </symbol>
        <symbol id="i47" viewBox="0 0 24 24">
            <path d="M7,19V17H9V19H7M11,19V17H13V19H11M15,19V17H17V19H15M7,15V13H9V15H7M11,15V13H13V15H11M15,15V13H17V15H15M7,11V9H9V11H7M11,11V9H13V11H11M15,11V9H17V11H15M7,7V5H9V7H7M11,7V5H13V7H11M15,7V5H17V7H15Z"/>
        </symbol>
        <symbol id="i48" viewBox="0 0 24 24">
            <path fill="none" stroke-width="2" stroke-linecap="round" stroke-linejoin="round" d="M12 3a9 9 0 1 0 9 9"/>
        </symbol>
        <symbol id="i49" viewBox="0 0 24 24">
            <path d="M6.62,10.79C8.06,13.62 10.38,15.94 13.21,17.38L15.41,15.18C15.69,14.9 16.08,14.82 16.43,14.93C17.55,15.3 18.75,15.5 20,15.5A1,1 0 0,1 21,16.5V20A1,1 0 0,1 20,21A17,17 0 0,1 3,4A1,1 0 0,1 4,3H7.5A1,1 0 0,1 8.5,4C8.5,5.25 8.7,6.45 9.07,7.57C9.18,7.92 9.1,8.31 8.82,8.59L6.62,10.79Z" />
        </symbol>
        <symbol id="i50" viewBox="0 0 24 24">
            <path d="M21 10V9L15 3H5C3.89 3 3 3.89 3 5V19C3 20.11 3.9 21 5 21H11V19.13L19.39 10.74C19.83 10.3 20.39 10.06 21 10M14 4.5L19.5 10H14V4.5M22.85 14.19L21.87 15.17L19.83 13.13L20.81 12.15C21 11.95 21.33 11.95 21.53 12.15L22.85 13.47C23.05 13.67 23.05 14 22.85 14.19M19.13 13.83L21.17 15.87L15.04 22H13V19.96L19.13 13.83Z" />
        </symbol>
        <symbol id="i51" viewBox="0 0 24 24">
            <path d="M19 4H5A3 3 0 002 7V17a3 3 0 003 3H19a3 3 0 003-3V7A3 3 0 0019 4Zm-.41 2-5.88 5.88a1 1 0 01-1.42 0L5.41 6ZM20 17a1 1 0 01-1 1H5a1 1 0 01-1-1V7.41l5.88 5.88a3 3 0 004.24 0L20 7.41Z"/>
        </symbol>
        <symbol id="i52" viewBox="0 0 24 24">
            <path d="M3.537 0C2.165 0 1.66.506 1.66 1.879V18.44a4 4 0 00.02.433c.031.3.037.59.316.92.027.033.311.245.311.245.153.075.258.13.43.2l8.335 3.491c.433.199.614.276.928.27h.002c.314.006.495-.071.928-.27l8.335-3.492c.172-.07.277-.124.43-.2 0 0 .284-.211.311-.243.28-.33.285-.621.316-.92a4 4 0 00.02-.434V1.879c0-1.373-.506-1.88-1.878-1.88zm13.366 3.11h.68c1.138 0 1.688.553 1.688 1.696v1.88h-1.374v-1.8c0-.369-.17-.54-.523-.54h-.235c-.367 0-.537.17-.537.539v5.81c0 .369.17.54.537.54h.262c.353 0 .523-.171.523-.54V8.619h1.373v2.143c0 1.144-.562 1.71-1.7 1.71h-.694c-1.138 0-1.7-.566-1.7-1.71V4.82c0-1.144.562-1.709 1.7-1.709zm-12.186.08h3.114v1.274H6.117v2.603h1.648v1.275H6.117v2.774h1.74v1.275h-3.14zm3.816 0h2.198c1.138 0 1.7.564 1.7 1.708v2.445c0 1.144-.562 1.71-1.7 1.71h-.799v3.338h-1.4zm4.53 0h1.4v9.201h-1.4zm-3.13 1.235v3.392h.575c.354 0 .523-.171.523-.54V4.965c0-.368-.17-.54-.523-.54zm-3.74 10.147a1.7 1.7 0 01.591.108 1.8 1.8 0 01.49.299l-.452.546a1.3 1.3 0 00-.308-.195.9.9 0 00-.363-.068.7.7 0 00-.28.06.7.7 0 00-.224.163.8.8 0 00-.151.243.8.8 0 00-.056.299v.008a.9.9 0 00.056.31.7.7 0 00.157.245.7.7 0 00.238.16.8.8 0 00.303.058.8.8 0 00.445-.116v-.339h-.548v-.565H7.37v1.255a2 2 0 01-.524.307 1.8 1.8 0 01-.683.123 1.6 1.6 0 01-.602-.107 1.5 1.5 0 01-.478-.3 1.4 1.4 0 01-.318-.455 1.4 1.4 0 01-.115-.58v-.008a1.4 1.4 0 01.113-.57 1.5 1.5 0 01.312-.46 1.4 1.4 0 01.474-.309 1.6 1.6 0 01.598-.111h.045zm11.963.008a2 2 0 01.612.094 1.6 1.6 0 01.507.277l-.386.546a1.6 1.6 0 00-.39-.205 1.2 1.2 0 00-.388-.07.35.35 0 00-.208.052.15.15 0 00-.07.127v.008a.16.16 0 00.022.084.2.2 0 00.076.066 1 1 0 00.147.06q.093.03.236.061a3 3 0 01.43.122 1.3 1.3 0 01.328.17.7.7 0 01.207.24.74.74 0 01.071.337v.008a.9.9 0 01-.081.382.8.8 0 01-.229.285 1 1 0 01-.353.18 1.6 1.6 0 01-.46.061 2.2 2.2 0 01-.71-.116 1.7 1.7 0 01-.593-.346l.43-.514q.416.335.9.335a.46.46 0 00.236-.05.16.16 0 00.082-.142v-.008a.15.15 0 00-.02-.077.2.2 0 00-.073-.066.8.8 0 00-.143-.062 3 3 0 00-.233-.062 5 5 0 01-.413-.113 1.3 1.3 0 01-.331-.16.7.7 0 01-.222-.243.73.73 0 01-.082-.36v-.008a.9.9 0 01.074-.359.8.8 0 01.214-.283 1 1 0 01.34-.185 1.4 1.4 0 01.448-.066zm-9.358.025h.742l1.183 2.81h-.825l-.203-.499H8.623l-.198.498h-.81zm2.197.02h.814l.663 1.08.663-1.08h.814v2.79h-.766v-1.602l-.711 1.091h-.016l-.707-1.083v1.593h-.754zm3.469 0h2.235v.658h-1.473v.422h1.334v.61h-1.334v.442h1.493v.658h-2.255zm-5.3.897-.315.793h.624zm-1.145 5.19h8.014l-4.09 1.348z"/>
        </symbol>
        <symbol id="i53" viewBox="0 0 90 90" >
            <path transform="translate(-18, -20)" d="M 39.5 43 L 34.25 51.5 L 68.5 51.25 L 73.75 43 Z M 80.75 43 L 59.5 76.5 H 36 L 41.5 68.25 H 56 L 61.25 60 H 29 L 23.5 68.25 H 31.25 L 20.75 85 H 64.25 L 80.75 58.75 L 86.75 68.25 H 81.5 L 76.25 76.5 H 92 L 97.25 85 H 107.25 Z"/>
        </symbol>
        <symbol id="i54" viewBox="0 0 24 24">
            <path d="M11.41 2c-6.2 0-8.88 5.53-8.88 5.53l.79.56S2.33 10 2.35 12.4c0 4.94 3.94 9.6 9.72 9.6 5.26 0 9.6-4.29 9.6-9.59C21.67 5.5 16.31 2 11.41 2m.06 1.69c4.84 0 8.6 3.91 8.6 8.45 0 4.81-3.62 8.16-7.84 8.16-3.1 0-5.9-2.36-5.9-5.6 0-1.88.99-3.2 2.11-3.88l.16.18c-.3.24-1.17 1.64-1.17 3 0 2.56 2 4.33 4.52 4.33 3.21 0 5.35-2.74 5.35-5.92 0-3.7-3.27-6.84-7.2-6.84-2.17 0-4.01.93-5.07 1.76l-.17-.15c1.39-2.14 3.79-3.49 6.61-3.49M10 7.23c2.53 0 4.97 1.66 5.59 4.02l-.23.08c-1.09-1.45-2.89-2.65-5.01-2.65-3.91 0-5.96 3.55-5.66 6.51l-.23.09s-.43-.95-.43-2.08c0-3.27 2.68-5.97 5.97-5.97m1.68 4.1c1.18 0 2.13.97 2.13 2.11 0 .94-.6 1.5-.6 1.5l.71.51s-.71 1.12-2.16 1.12c-1.39 0-2.63-1.13-2.63-2.64 0-1.55 1.34-2.6 2.55-2.6"/>
        </symbol>
        <symbol id="i55" viewBox="0 0 2176 2205" >
            <path transform="translate(0, 2376)"   d="M370-2147c0 3-16 81-35 174-20 92-56 265-80 383s-71 345-104 505c-33 159-57 293-55 297 6 10 295 10 310 0 6-4 27-97 47-208 20-110 41-224 48-252l11-52h133c172 0 225 11 264 55 46 52 57 122 43 268-6 67-8 138-4 157l8 35 113 5 114 5 89 97 90 97-106 232c-59 128-105 233-103 235 1 2 101-56 222-128s227-133 235-135c9-2 89 53 184 127 93 71 170 129 172 127s-12-100-31-218l-34-214 27-23c15-12 102-75 194-140 92-64 167-120 168-124 0-4-98-9-217-10l-218-3-34-213c-19-116-37-212-40-212-4 0-64 97-135 215l-129 215h-225l-7-38c-3-20-5-118-4-217 3-183-1-206-45-305-4-11 7-23 38-43 129-81 204-269 176-440-20-126-74-188-199-229-62-20-89-22-473-26-225-2-408-2-408 1m708 270c66 36 88 110 57 196-21 61-58 104-117 137l-53 29H768c-186 0-198-1-198-18s63-307 76-350c5-17 19-18 202-15 167 3 202 6 230 21"/>
        </symbol>
        <symbol id="i56" viewBox="0 0 24 24" >
            <path d="M5 5H20V20H5V5M8 8V17H17V8Z"/>
        </symbol>
        <symbol id="i57" viewBox="0 0 24 24">
            <path d="M6.43 3.72c.07-.06.14-.12.19-.16C8.18 2.55 10 2 12 2c1.88 0 3.64.5 5.14 1.42.11.08.4.27.56.46C16.25 2.28 12 5.7 12 5.7c-1.5-1.13-2.83-1.9-3.84-2.2-.85-.21-1.43 0-1.7.2m12.88 1.51c-.05-.05-.1-.1-.14-.15-.36-.4-.82-.5-1.2-.47-.39.12-2.1.73-4.2 2.72 0 0 2.37 2.3 3.82 4.65s2.31 4.2 1.78 6.77C21 16.95 22 14.59 22 12c0-2.62-1-5-2.66-6.79m-3.61 7.75c-.65-.72-1.6-1.75-2.87-3.01-.27-.27-.56-.55-.86-.85 0 0-.47.46-1.07 1.07-.77.77-1.76 1.78-2.32 2.37-.98 1.05-3.8 4.35-3.96 6.2 0 0-.65-1.46.75-4.85.9-2.21 3.6-5.53 4.75-6.61 0 0-1.03-1.14-2.33-1.93l-.05-.03c-.63-.37-1.31-.66-1.97-.7-.67.05-1.09.54-1.09.54A9.95 9.95 0 0 0 2 12a10 10 0 0 0 10 10c2.93 0 5.57-1.26 7.4-3.27 0 0-.21-1.33-1.56-3.23-.31-.43-1.47-1.81-2.11-2.54"/>
        </symbol>
        <symbol id="i58" viewBox="0 0 24 24">
            <path d="M20.001 3.106c0-.059 0-.187.063-.187.09 0 .167.19.196.27.486 1.548.35 3.449-.345 5.588 2.756 1.473 4.338 3.382 4.052 5.168-.38 2.347-3.824 3.727-8.462 3.565a27 27 0 001.55-1.825c1.786-.347 3.066-1.053 3.4-2.184.246-.823-.32-1.736-1.396-2.594-1.768 3.723-4.722 7.058-7.451 8.985 1.323 1.687 2.556 2.858 3.964 3.516.052.025.164.09.126.148-.044.078-.252.05-.33.034-1.585-.352-3.158-1.42-4.673-3.093-2.652 1.65-5.099 2.066-6.502.925-1.842-1.5-1.316-5.178 1.137-9.106.193.631.505 1.526.806 2.253-.594 1.721-.622 3.183.19 4.041.59.623 1.664.59 2.945.088-2.325-3.395-3.738-7.62-4.04-10.954-2.124.303-3.754.785-5.027 1.675-.048.033-.16.098-.195.04-.044-.078.082-.24.137-.304 1.098-1.196 2.812-2.028 5.012-2.496-.102-3.124.758-5.45 2.45-6.093 2.22-.846 5.14 1.448 7.316 5.542a27 27 0 00-2.354-.429c-1.193-1.372-2.446-2.13-3.594-1.854-.834.2-1.341 1.146-1.547 2.502 4.108-.332 8.473.56 11.51 1.964.8-1.984 1.197-3.637 1.062-5.185m-9.598 15.057c3.252-1.859 5.889-4.696 7.638-7.965-3.24-1.88-7.013-2.75-10.716-2.627-.008 3.745 1.124 7.451 3.082 10.594z"/>
        </symbol>
        <symbol id="i59" viewBox="0 0 661.738 678.039">
            <path d="M319.897.18c70.85-2.403 142.426 19.221 200.312 61.374 69.892 49.891 119.485 128.508 135.234 214.438 12.797 62.188 5.505 127.694-16.608 186.736-28.96 77.272-86.567 142.571-158.455 179.95-46.465 23.923-98.503 38.125-150.748 34.909-43.543 2.581-86.982-7.487-127.017-24.698-80.896-34.623-147-103.878-178.984-187.688-25.074-64.344-30.719-136.705-14.414-204.05 18.541-82.043 68.615-155.817 136.577-202.813C196.905 22.475 258.091 2.406 319.897.18m-62.975 79.854c-69.372 20.633-129.461 71.975-161.618 138.435-25.006 50.21-32.882 108.649-24.521 164.232 1.374 6.711.755 14.34 4.988 20.104 26.342-60.419 57.919-121.124 108.611-163.808 48.603-39.396 107.276-69.5 170.286-70.667-12.761-15.581-25.59-31.093-38.691-46.394 45.19 13.074 90.247 26.678 134.995 41.305-30.716 31.624-61.356 63.354-93.349 93.601 1.035-19.47 2.479-38.974 2.96-58.479-22.048 3.958-42.578 14.842-59.639 29.54-37.214 32.261-59.124 79.182-72.744 126.354-14.033 48.479-19.877 99.532-17.436 150.023 34.875-4.096 68.684-16.394 99.154-34.13 37.183-21.696 68.653-56.077 81.311-98.688-16.028 2.649-31.919 6.258-47.671 10.245 25.452-33.211 51.485-65.965 76.872-99.249 21.839 37.101 44.159 73.949 63.281 112.644-16.987-6.749-32.982-15.898-50.316-21.662 17.78 72.861 13.86 151.581-14.446 221.081 76.08-27.168 138.021-92.5 162.34-171.4 21.668-69.007 15.548-147.27-18.397-211.044-28.723-55.649-77.248-99.995-134.104-123.385-54.204-22.473-115.769-25.053-171.866-8.658"/>
        </symbol>
        <symbol id="i60" viewBox="0 0 24 24">
            <path d="M5 9H19v2H5V9Zm0 4H16v2H5V13m15 7a2 2 0 002-2V6A2 2 0 0020 4H4A2 2 0 002 6V18a2 2 0 002 2H20"/>
        </symbol>
        <symbol id="i61" viewBox="0 0 24 24">
            <path d="M6 12.45V9.64c1.47.83 3.61 1.36 6 1.36s4.53-.53 6-1.36v2.39c.17-.03.33-.03.5-.03.5 0 1 .07 1.5.18V7c0-2.21-3.58-4-8-4S4 4.79 4 7v10c0 2.21 3.59 4 8 4h.5c-.26-.63-.41-1.3-.47-2H12c-3.87 0-6-1.5-6-2v-2.23c1.61.78 3.72 1.23 6 1.23h.5c.35-.82.84-1.54 1.45-2.14-.63.09-1.28.14-1.95.14-2.42 0-4.7-.6-6-1.55M12 5c3.87 0 6 1.5 6 2s-2.13 2-6 2-6-1.5-6-2 2.13-2 6-2m6 13.5 1.77-1.77A2.5 2.5 0 1020 20h1.71A3.99 3.99 0 0118 22.5c-2.21 0-4-1.79-4-4s1.79-4 4-4c1.11 0 2.11.45 2.83 1.17L22 14.5v4z"/>
        </symbol>
        <symbol id="i62" viewBox="0 0 24 24">
            <path d="M20 13.09V7c0-2.21-3.58-4-8-4S4 4.79 4 7v10c0 2.21 3.59 4 8 4 .46 0 .9 0 1.33-.06A6 6 0 0113 19v-.05c-.32.05-.65.05-1 .05-3.87 0-6-1.5-6-2v-2.23c1.61.78 3.72 1.23 6 1.23.65 0 1.27-.04 1.88-.11A5.99 5.99 0 0119 13c.34 0 .67.04 1 .09m-2-.64c-1.3.95-3.58 1.55-6 1.55s-4.7-.6-6-1.55V9.64c1.47.83 3.61 1.36 6 1.36s4.53-.53 6-1.36zM12 9C8.13 9 6 7.5 6 7s2.13-2 6-2 6 1.5 6 2-2.13 2-6 2m10 11-3 3-3-3h2v-4h2v4z"/>
        </symbol>
        <symbol id="i63" viewBox="0 0 24 24">
            <path d="M20 13.09V7c0-2.21-3.58-4-8-4S4 4.79 4 7v10c0 2.21 3.59 4 8 4 .46 0 .9 0 1.33-.06A6 6 0 0113 19v-.05c-.32.05-.65.05-1 .05-3.87 0-6-1.5-6-2v-2.23c1.61.78 3.72 1.23 6 1.23.65 0 1.27-.04 1.88-.11A5.99 5.99 0 0119 13c.34 0 .67.04 1 .09m-2-.64c-1.3.95-3.58 1.55-6 1.55s-4.7-.6-6-1.55V9.64c1.47.83 3.61 1.36 6 1.36s4.53-.53 6-1.36zM12 9C8.13 9 6 7.5 6 7s2.13-2 6-2 6 1.5 6 2-2.13 2-6 2m10 9h-2v4h-2v-4h-2l3-3z"/>
        </symbol>
        <symbol id="i64" viewBox="0 0 24 24">
            <path d="M19 18.5l2.25 2.25L19 23V21.5c-2.21 0-4-1.79-4-4 0-.82.25-1.58.67-2.21l1.09 1.09c-.17.34-.26.72-.26 1.12A2.5 2.5 0 0019 20Zm0-5c2.21 0 4 1.79 4 4 0 .82-.25 1.58-.67 2.21l-1.09-1.09c.17-.34.26-.72.26-1.12A2.5 2.5 0 0019 15v1.5l-2.25-2.25L19 12v1.5"/>
        </symbol>
        <symbol id="i65" viewBox="0 0 24 24">
            <path d="M13 19c0 .34.04.67.09 1H6.5c-1.5 0-2.81-.5-3.89-1.57C1.54 17.38 1 16.09 1 14.58q0-1.95 1.17-3.48C3.34 9.57 4 9.43 5.25 9.15c.42-1.53 1.25-2.77 2.5-3.72S10.42 4 12 4c1.95 0 3.6.68 4.96 2.04S19 9.05 19 11c1.15.13 2.1.63 2.86 1.5.51.57.84 1.21 1 1.92A5.9 5.9 0 0019 13h-2v-2c0-1.38-.5-2.56-1.46-3.54C14.56 6.5 13.38 6 12 6s-2.56.5-3.54 1.46C7.5 8.44 7 9.62 7 11h-.5c-.97 0-1.79.34-2.47 1.03-.69.68-1.03 1.5-1.03 2.47s.34 1.79 1.03 2.5c.68.66 1.5 1 2.47 1h6.59c-.05.33-.09.66-.09 1"/>
        </symbol>
        <symbol id="i66" viewBox="0 0 24 24">
            <path d="M12 6V9l4-4-4-4V4A8 8 0 004 12c0 1.57.46 3.03 1.24 4.26L6.7 14.8C6.25 13.97 6 13 6 12a6 6 0 016-6m6.76 1.74L17.3 9.2c.44.84.7 1.8.7 2.8a6 6 0 01-6 6V15L8 19l4 4V20a8 8 0 008-8c0-1.57-.46-3.03-1.24-4.26Z"/>
        </symbol>
    </defs>
</svg>