<svg xmlns="http://www.w3.org/2000/svg" style="display: none;">
    <defs>
        <path id="avatarMask" d="M152.18,175H31.1c-12.92,0-23.4-11.34-23.4-25.32L-0.19,26.68C-0.19,11.94,11.29,0,25.46,0h132.71c14.16,0,25.64,11.94,25.64,26.68l-8.24,123.01C175.58,163.66,165.1,175,152.18,175z"/>
        <symbol id="i1" viewBox="0 0 448 512">
            <path d="M395.5 177.5c0 33.8-27.5 61-61 61-33.8 0-61-27.3-61-61s27.3-61 61-61c33.5 0 61 27.2 61 61zm52.5.2c0 63-51 113.8-113.7 113.8L225 371.3c-4 43-40.5 76.8-84.5 76.8-40.5 0-74.7-28.8-83-67L0 358V250.7L97.2 290c15.1-9.2 32.2-13.3 52-11.5l71-101.7c.5-62.3 51.5-112.8 114-112.8C397 64 448 115 448 177.7zM203 363c0-34.7-27.8-62.5-62.5-62.5-4.5 0-9 .5-13.5 1.5l26 10.5c25.5 10.2 38 39 27.7 64.5-10.2 25.5-39.2 38-64.7 27.5-10.2-4-20.5-8.3-30.7-12.2 10.5 19.7 31.2 33.2 55.2 33.2 34.7 0 62.5-27.8 62.5-62.5zm207.5-185.3c0-42-34.3-76.2-76.2-76.2-42.3 0-76.5 34.2-76.5 76.2 0 42.2 34.3 76.2 76.5 76.2 41.9.1 76.2-33.9 76.2-76.2z"/>
        </symbol>
        <symbol id="i2" viewBox="0 0 24 24">
            <path d="M11.981 0C5.72 0 .581 2.231.02 5.081l6.675 1.257c.544-.17 1.162-.244 1.8-.244l3.131-1.875c-.037-.469.244-.956.881-1.35.9-.581 2.307-.9 3.732-.9a8.582 8.582 0 012.812.412c2.1.713 2.569 2.082 1.069 3.057-.956.618-2.494.937-4.013.9l-4.125 1.48c-.037.3-.243.582-.637.845-1.106.712-3.263.88-4.8.356-.675-.225-1.125-.563-1.313-.9L.47 7.2c.431.675 1.125 1.294 2.025 1.838C.938 9.938 0 11.062 0 12.28c0 1.2.9 2.307 2.419 3.206C.9 16.37 0 17.476 0 18.675 0 21.619 5.363 24 12 24c6.619 0 12-2.381 12-5.325 0-1.2-.9-2.306-2.419-3.188C23.1 14.588 24 13.482 24 12.282c0-1.219-.938-2.362-2.512-3.262 1.556-.956 2.493-2.138 2.493-3.413 0-3.093-5.381-5.606-12-5.606zm4.275 2.663c-.975.018-1.912.225-2.512.618-1.031.675-.713 1.594.712 2.082 1.425.487 3.394.337 4.425-.338 1.032-.675.713-1.594-.712-2.062a6.376 6.376 0 00-1.913-.282zm.057.318c1.387 0 2.493.525 2.493 1.163 0 .637-1.106 1.162-2.493 1.162-1.388 0-2.494-.525-2.494-1.162 0-.638 1.106-1.163 2.494-1.163zM8.493 6.45c-.3.019-.58.038-.862.075l1.707.319a2.03.94 0 11-1.52 1.744l-1.668-.32c.188.17.45.32.806.45 1.2.413 2.888.282 3.75-.28.863-.563.6-1.35-.6-1.744-.487-.169-1.068-.244-1.612-.244zm11.944 3.113v1.743c0 2.063-3.787 3.732-8.437 3.732-4.669 0-8.437-1.67-8.437-3.732V9.581c2.156.994 5.137 1.613 8.418 1.613 3.3 0 6.3-.619 8.475-1.631zm0 6.487v1.65c0 2.063-3.787 3.731-8.437 3.731-4.669 0-8.437-1.668-8.437-3.731v-1.65c2.175.956 5.137 1.538 8.437 1.538s6.281-.582 8.438-1.538z" />
        </symbol>
        <symbol id="i3" viewBox="0 0 24 24">
            <path d="M23 12 20.56 9.22 20.9 5.54 17.29 4.72 15.4 1.54 12 3 8.6 1.54 6.71 4.72 3.1 5.53 3.44 9.21 1 12 3.44 14.78 3.1 18.47 6.71 19.29 8.6 22.47 12 21 15.4 22.46 17.29 19.28 20.9 18.46 20.56 14.78 23 12M10 17 6 13 7.41 11.59 10 14.17 16.59 7.58 18 9 10 17Z"/>
        </symbol>
        <symbol id="i4" viewBox="0 0 24 24">
            <path d="M23,12L20.56,9.22L20.9,5.54L17.29,4.72L15.4,1.54L12,3L8.6,1.54L6.71,4.72L3.1,5.53L3.44,9.21L1,12L3.44,14.78L3.1,18.47L6.71,19.29L8.6,22.47L12,21L15.4,22.46L17.29,19.28L20.9,18.46L20.56,14.78L23,12M13,17H11V15H13V17M13,13H11V7H13V13Z"/>
        </symbol>
        <symbol id="i5" viewBox="0 0 24 24" fill="none" stroke-width="2" stroke-linecap="round" stroke-linejoin="round">
            <path d="M16 21v-2a4 4 0 0 0-4-4H6a4 4 0 0 0-4 4v2"/>
            <circle cx="9" cy="7" r="4"/>
            <path d="M22 21v-2a4 4 0 0 0-3-3.87"/>
            <path d="M16 3.13a4 4 0 0 1 0 7.75"/>
        </symbol>
        <symbol id="i6" viewBox="0 0 24 24" fill="none" stroke-width="2" stroke-linecap="round" stroke-linejoin="round">
            <polygon points="13 2 3 14 12 14 11 22 21 10 12 10 13 2"/>
        </symbol>
        <symbol id="i7" viewBox="0 0 24 24" fill="none" stroke-width="2" stroke-linecap="round" stroke-linejoin="round">
            <path d="M9 20H4a2 2 0 0 1-2-2V5a2 2 0 0 1 2-2h3.9a2 2 0 0 1 1.69.9l.81 1.2a2 2 0 0 0 1.67.9H20a2 2 0 0 1 2 2v1"/>
            <path d="M12 10v4h4"/>
            <path d="m12 14 1.5-1.5c.9-.9 2.2-1.5 3.5-1.5s2.6.6 3.5 1.5c.4.4.8 1 1 1.5"/>
            <path d="M22 22v-4h-4"/>
            <path d="m22 18-1.5 1.5c-.9.9-2.1 1.5-3.5 1.5s-2.6-.6-3.5-1.5c-.4-.4-.8-1-1-1.5"/>
        </symbol>
        <symbol id="i8" viewBox="0 0 512 512">
            <path d="M471.6 21.7c-21.9-21.9-57.3-21.9-79.2 0L362.3 51.7l97.9 97.9 30.1-30.1c21.9-21.9 21.9-57.3 0-79.2L471.6 21.7zm-299.2 220c-6.1 6.1-10.8 13.6-13.5 21.9l-29.6 88.8c-2.9 8.6-.6 18.1 5.8 24.6s15.9 8.7 24.6 5.8l88.8-29.6c8.2-2.7 15.7-7.4 21.9-13.5L437.7 172.3 339.7 74.3 172.4 241.7zM96 64C43 64 0 107 0 160V416c0 53 43 96 96 96H352c53 0 96-43 96-96V320c0-17.7-14.3-32-32-32s-32 14.3-32 32v96c0 17.7-14.3 32-32 32H96c-17.7 0-32-14.3-32-32V160c0-17.7 14.3-32 32-32h96c17.7 0 32-14.3 32-32s-14.3-32-32-32H96z"/>
        </symbol>
        <symbol id="i9" viewBox="0 0 512 512">
            <path d="M416 448h-84c-6.6 0-12-5.4-12-12v-40c0-6.6 5.4-12 12-12h84c17.7 0 32-14.3 32-32V160c0-17.7-14.3-32-32-32h-84c-6.6 0-12-5.4-12-12V76c0-6.6 5.4-12 12-12h84c53 0 96 43 96 96v192c0 53-43 96-96 96zm-47-201L201 79c-15-15-41-4.5-41 17v96H24c-13.3 0-24 10.7-24 24v96c0 13.3 10.7 24 24 24h136v96c0 21.5 26 32 41 17l168-168c9.3-9.4 9.3-24.6 0-34z"/>
        </symbol>
        <symbol id="i10" viewBox="0 0 24 24">
            <path d="M5,3C3.89,3 3,3.89 3,5V19A2,2 0 0,0 5,21H19A2,2 0 0,0 21,19V12H19V19H5V5H12V3H5M17.78,4C17.61,4 17.43,4.07 17.3,4.2L16.08,5.41L18.58,7.91L19.8,6.7C20.06,6.44 20.06,6 19.8,5.75L18.25,4.2C18.12,4.07 17.95,4 17.78,4M15.37,6.12L8,13.5V16H10.5L17.87,8.62L15.37,6.12Z"/>
        </symbol>
        <symbol id="i11" viewBox="0 0 512 512">
            <path d="M505 442.7L405.3 343c-4.5-4.5-10.6-7-17-7H372c27.6-35.3 44-79.7 44-128C416 93.1 322.9 0 208 0S0 93.1 0 208s93.1 208 208 208c48.3 0 92.7-16.4 128-44v16.3c0 6.4 2.5 12.5 7 17l99.7 99.7c9.4 9.4 24.6 9.4 33.9 0l28.3-28.3c9.4-9.4 9.4-24.6.1-34zM208 336c-70.7 0-128-57.2-128-128 0-70.7 57.2-128 128-128 70.7 0 128 57.2 128 128 0 70.7-57.2 128-128 128z"/>
        </symbol>
        <symbol id="i12" viewBox="0 0 448 512">
            <path d="M256 80c0-17.7-14.3-32-32-32s-32 14.3-32 32V224H48c-17.7 0-32 14.3-32 32s14.3 32 32 32H192V432c0 17.7 14.3 32 32 32s32-14.3 32-32V288H400c17.7 0 32-14.3 32-32s-14.3-32-32-32H256V80z"/>
        </symbol>
        <symbol id="i13" viewBox="0 0 24 24">
            <path d="M16,12V4H17V2H7V4H8V12L6,14V16H11.2V22H12.8V16H18V14L16,12Z" />
        </symbol>
        <symbol id="i14" viewBox="0 0 24 24">
            <path d="M19,4H15.5L14.5,3H9.5L8.5,4H5V6H19M6,19A2,2 0 0,0 8,21H16A2,2 0 0,0 18,19V7H6V19Z" />
        </symbol>
        <symbol id="i15" viewBox="0 0 448 512">
            <path d="M224 512c35.32 0 63.97-28.65 63.97-64H160.03c0 35.35 28.65 64 63.97 64zm215.39-149.71c-19.32-20.76-55.47-51.99-55.47-154.29 0-77.7-54.48-139.9-127.94-155.16V32c0-17.67-14.32-32-31.98-32s-31.98 14.33-31.98 32v20.84C118.56 68.1 64.08 130.3 64.08 208c0 102.3-36.15 133.53-55.47 154.29-6 6.45-8.66 14.16-8.61 21.71.11 16.4 12.98 32 32.1 32h383.8c19.12 0 32-15.6 32.1-32 .05-7.55-2.61-15.27-8.61-21.71z" />
        </symbol>
        <symbol id="i16" viewBox="0 0 20 20">
            <path fill-rule="evenodd" d="M7.84 1.804A1 1 0 018.82 1h2.36a1 1 0 01.98.804l.331 1.652a6.993 6.993 0 011.929 1.115l1.598-.54a1 1 0 011.186.447l1.18 2.044a1 1 0 01-.205 1.251l-1.267 1.113a7.047 7.047 0 010 2.228l1.267 1.113a1 1 0 01.206 1.25l-1.18 2.045a1 1 0 01-1.187.447l-1.598-.54a6.993 6.993 0 01-1.929 1.115l-.33 1.652a1 1 0 01-.98.804H8.82a1 1 0 01-.98-.804l-.331-1.652a6.993 6.993 0 01-1.929-1.115l-1.598.54a1 1 0 01-1.186-.447l-1.18-2.044a1 1 0 01.205-1.251l1.267-1.114a7.05 7.05 0 010-2.227L1.821 7.773a1 1 0 01-.206-1.25l1.18-2.045a1 1 0 011.187-.447l1.598.54A6.993 6.993 0 017.51 3.456l.33-1.652zM10 13a3 3 0 100-6 3 3 0 000 6z"/>
        </symbol>
        <symbol id="i17" viewBox="0 0 496 512">
            <path d="M496 256c0 137-111.2 248-248.4 248-113.8 0-209.6-76.3-239-180.4l95.2 39.3c6.4 32.1 34.9 56.4 68.9 56.4 39.2 0 71.9-32.4 70.2-73.5l84.5-60.2c52.1 1.3 95.8-40.9 95.8-93.5 0-51.6-42-93.5-93.7-93.5s-93.7 42-93.7 93.5v1.2L176.6 279c-15.5-.9-30.7 3.4-43.5 12.1L0 236.1C10.2 108.4 117.1 8 247.6 8 384.8 8 496 119 496 256zM155.7 384.3l-30.5-12.6a52.79 52.79 0 0 0 27.2 25.8c26.9 11.2 57.8-1.6 69-28.4 5.4-13 5.5-27.3.1-40.3-5.4-13-15.5-23.2-28.5-28.6-12.9-5.4-26.7-5.2-38.9-.6l31.5 13c19.8 8.2 29.2 30.9 20.9 50.7-8.3 19.9-31 29.2-50.8 21zm173.8-129.9c-34.4 0-62.4-28-62.4-62.3s28-62.3 62.4-62.3 62.4 28 62.4 62.3-27.9 62.3-62.4 62.3zm.1-15.6c25.9 0 46.9-21 46.9-46.8 0-25.9-21-46.8-46.9-46.8s-46.9 21-46.9 46.8c.1 25.8 21.1 46.8 46.9 46.8z"/>
        </symbol>
        <symbol id="i18" viewBox="0 0 512 512">
            <path d="M483.13 245.38C461.92 149.49 430 98.31 382.65 84.33A107.13 107.13 0 0 0 352 80c-13.71 0-25.65 3.34-38.28 6.88C298.5 91.15 281.21 96 256 96s-42.51-4.84-57.76-9.11C185.6 83.34 173.67 80 160 80a115.74 115.74 0 0 0-31.73 4.32c-47.1 13.92-79 65.08-100.52 161C4.61 348.54 16 413.71 59.69 428.83a56.62 56.62 0 0 0 18.64 3.22c29.93 0 53.93-24.93 70.33-45.34 18.53-23.1 40.22-34.82 107.34-34.82 59.95 0 84.76 8.13 106.19 34.82 13.47 16.78 26.2 28.52 38.9 35.91 16.89 9.82 33.77 12 50.16 6.37 25.82-8.81 40.62-32.1 44-69.24 2.57-28.48-1.39-65.89-12.12-114.37zM208 240h-32v32a16 16 0 0 1-32 0v-32h-32a16 16 0 0 1 0-32h32v-32a16 16 0 0 1 32 0v32h32a16 16 0 0 1 0 32zm84 4a20 20 0 1 1 20-20 20 20 0 0 1-20 20zm44 44a20 20 0 1 1 20-19.95A20 20 0 0 1 336 288zm0-88a20 20 0 1 1 20-20 20 20 0 0 1-20 20zm44 44a20 20 0 1 1 20-20 20 20 0 0 1-20 20z"/>
        </symbol>
        <symbol id="i19" viewBox="0 0 384 512">
            <path d="M173.8 5.5c11-7.3 25.4-7.3 36.4 0L228 17.2c6 3.9 13 5.8 20.1 5.4l21.3-1.3c13.2-.8 25.6 6.4 31.5 18.2l9.6 19.1c3.2 6.4 8.4 11.5 14.7 14.7L344.5 83c11.8 5.9 19 18.3 18.2 31.5l-1.3 21.3c-.4 7.1 1.5 14.2 5.4 20.1l11.8 17.8c7.3 11 7.3 25.4 0 36.4L366.8 228c-3.9 6-5.8 13-5.4 20.1l1.3 21.3c.8 13.2-6.4 25.6-18.2 31.5l-19.1 9.6c-6.4 3.2-11.5 8.4-14.7 14.7L301 344.5c-5.9 11.8-18.3 19-31.5 18.2l-21.3-1.3c-7.1-.4-14.2 1.5-20.1 5.4l-17.8 11.8c-11 7.3-25.4 7.3-36.4 0L156 366.8c-6-3.9-13-5.8-20.1-5.4l-21.3 1.3c-13.2 .8-25.6-6.4-31.5-18.2l-9.6-19.1c-3.2-6.4-8.4-11.5-14.7-14.7L39.5 301c-11.8-5.9-19-18.3-18.2-31.5l1.3-21.3c.4-7.1-1.5-14.2-5.4-20.1L5.5 210.2c-7.3-11-7.3-25.4 0-36.4L17.2 156c3.9-6 5.8-13 5.4-20.1l-1.3-21.3c-.8-13.2 6.4-25.6 18.2-31.5l19.1-9.6C65 70.2 70.2 65 73.4 58.6L83 39.5c5.9-11.8 18.3-19 31.5-18.2l21.3 1.3c7.1 .4 14.2-1.5 20.1-5.4L173.8 5.5zM272 192a80 80 0 1 0 -160 0 80 80 0 1 0 160 0zM1.3 441.8L44.4 339.3c.2 .1 .3 .2 .4 .4l9.6 19.1c11.7 23.2 36 37.3 62 35.8l21.3-1.3c.2 0 .5 0 .7 .2l17.8 11.8c5.1 3.3 10.5 5.9 16.1 7.7l-37.6 89.3c-2.3 5.5-7.4 9.2-13.3 9.7s-11.6-2.2-14.8-7.2L74.4 455.5l-56.1 8.3c-5.7 .8-11.4-1.5-15-6s-4.3-10.7-2.1-16zm248 60.4L211.7 413c5.6-1.8 11-4.3 16.1-7.7l17.8-11.8c.2-.1 .4-.2 .7-.2l21.3 1.3c26 1.5 50.3-12.6 62-35.8l9.6-19.1c.1-.2 .2-.3 .4-.4l43.2 102.5c2.2 5.3 1.4 11.4-2.1 16s-9.3 6.9-15 6l-56.1-8.3-32.2 49.2c-3.2 5-8.9 7.7-14.8 7.2s-11-4.3-13.3-9.7z" />
        </symbol>
        <symbol id="i20" viewBox="0 0 24 24">
            <path d="M12 2C17.5 2 22 6.5 22 12S17.5 22 12 22 2 17.5 2 12 6.5 2 12 2M12 4C10.1 4 8.4 4.6 7.1 5.7L18.3 16.9C19.3 15.5 20 13.8 20 12C20 7.6 16.4 4 12 4M16.9 18.3L5.7 7.1C4.6 8.4 4 10.1 4 12C4 16.4 7.6 20 12 20C13.9 20 15.6 19.4 16.9 18.3Z"/>
        </symbol>
        <symbol id="i21" viewBox="0 0 448 512">
            <path d="M207.029 381.476L12.686 187.132c-9.373-9.373-9.373-24.569 0-33.941l22.667-22.667c9.357-9.357 24.522-9.375 33.901-.04L224 284.505l154.745-154.021c9.379-9.335 24.544-9.317 33.901.04l22.667 22.667c9.373 9.373 9.373 24.569 0 33.941L240.971 381.476c-9.373 9.372-24.569 9.372-33.942 0z" />
        </symbol>
        <symbol id="i22" viewBox="0 0 496 512">
            <path d="M248 104c-53 0-96 43-96 96s43 96 96 96 96-43 96-96-43-96-96-96zm0 144c-26.5 0-48-21.5-48-48s21.5-48 48-48 48 21.5 48 48-21.5 48-48 48zm0-240C111 8 0 119 0 256s111 248 248 248 248-111 248-248S385 8 248 8zm0 448c-49.7 0-95.1-18.3-130.1-48.4 14.9-23 40.4-38.6 69.6-39.5 20.8 6.4 40.6 9.6 60.5 9.6s39.7-3.1 60.5-9.6c29.2 1 54.7 16.5 69.6 39.5-35 30.1-80.4 48.4-130.1 48.4zm162.7-84.1c-24.4-31.4-62.1-51.9-105.1-51.9-10.2 0-26 9.6-57.6 9.6-31.5 0-47.4-9.6-57.6-9.6-42.9 0-80.6 20.5-105.1 51.9C61.9 339.2 48 299.2 48 256c0-110.3 89.7-200 200-200s200 89.7 200 200c0 43.2-13.9 83.2-37.3 115.9z" />
        </symbol>
        <symbol id="i23" viewBox="0 0 640 512">
            <path d="M480.07 96H160a160 160 0 1 0 114.24 272h91.52A160 160 0 1 0 480.07 96zM248 268a12 12 0 0 1-12 12h-52v52a12 12 0 0 1-12 12h-24a12 12 0 0 1-12-12v-52H84a12 12 0 0 1-12-12v-24a12 12 0 0 1 12-12h52v-52a12 12 0 0 1 12-12h24a12 12 0 0 1 12 12v52h52a12 12 0 0 1 12 12zm216 76a40 40 0 1 1 40-40 40 40 0 0 1-40 40zm64-96a40 40 0 1 1 40-40 40 40 0 0 1-40 40z" />
        </symbol>
        <symbol id="i24" viewBox="0 0 640 512">
            <path d="M192 256c61.9 0 112-50.1 112-112S253.9 32 192 32 80 82.1 80 144s50.1 112 112 112zm76.8 32h-8.3c-20.8 10-43.9 16-68.5 16s-47.6-6-68.5-16h-8.3C51.6 288 0 339.6 0 403.2V432c0 26.5 21.5 48 48 48h288c26.5 0 48-21.5 48-48v-28.8c0-63.6-51.6-115.2-115.2-115.2zM480 256c53 0 96-43 96-96s-43-96-96-96-96 43-96 96 43 96 96 96zm48 32h-3.8c-13.9 4.8-28.6 8-44.2 8s-30.3-3.2-44.2-8H432c-20.4 0-39.2 5.9-55.7 15.4 24.4 26.3 39.7 61.2 39.7 99.8v38.4c0 2.2-.5 4.3-.6 6.4H592c26.5 0 48-21.5 48-48 0-61.9-50.1-112-112-112z" />
        </symbol>
        <symbol id="i25" viewBox="0 0 24 24">
            <path d="M12 2C6.5 2 2 6.5 2 12S6.5 22 12 22 22 17.5 22 12 17.5 2 12 2M10 17L5 12L6.41 10.59L10 14.17L17.59 6.58L19 8L10 17Z" />
        </symbol>
        <symbol id="i26" viewBox="0 0 24 24">
            <path d="M17.81 4.47c-.08 0-.16-.02-.23-.06C15.66 3.42 14 3 12 3a11.43 11.43 0 0 0-5.56 1.41.51.51 0 0 1-.68-.2c-.13-.24-.04-.55.2-.68C7.82 2.5 9.86 2 12 2s4 .47 6.04 1.5c.25.15.34.45.21.69a.48.48 0 0 1-.44.28M3.5 9.72a.52.52 0 0 1-.29-.09c-.21-.16-.28-.47-.12-.7.99-1.4 2.25-2.5 3.75-3.27C10 4.04 14 4.03 17.15 5.65c1.5.77 2.76 1.85 3.75 3.25a.51.51 0 0 1-.12.7c-.23.16-.54.11-.7-.1-.9-1.28-2.04-2.27-3.39-2.96-2.87-1.47-6.54-1.47-9.4.01-1.36.7-2.5 1.7-3.4 2.95-.08.15-.23.22-.39.22m6.25 12.07c-.13 0-.25-.05-.35-.15-.87-.87-1.34-1.43-2.01-2.64-.69-1.23-1.05-2.73-1.05-4.34 0-2.97 2.54-5.39 5.66-5.39s5.66 2.42 5.66 5.39a.5.5 0 1 1-1 0c0-2.42-2.09-4.39-4.66-4.39s-4.66 1.97-4.66 4.39c0 1.44.32 2.77.93 3.84.64 1.16 1.08 1.65 1.85 2.43.19.2.19.51 0 .71-.12.1-.24.15-.37.15m7.17-1.85c-1.19 0-2.24-.3-3.1-.89-1.49-1.01-2.38-2.65-2.38-4.39a.5.5 0 1 1 1 0c0 1.41.72 2.74 1.94 3.56.71.48 1.54.71 2.54.71a6.61 6.61 0 0 0 1.04-.1c.27-.05.54.13.58.41.05.26-.13.53-.41.58a6.83 6.83 0 0 1-1.21.12M14.91 22h-.13c-1.59-.46-2.63-1.05-3.72-2.12a7.28 7.28 0 0 1-2.17-5.22c0-1.62 1.38-2.94 3.08-2.94s3.08 1.32 3.08 2.94c0 1.07.95 1.94 2.08 1.94 1.15 0 2.08-.87 2.08-1.94 0-3.77-3.25-6.83-7.25-6.83-2.84 0-5.46 1.58-6.61 4.03-.39.81-.59 1.76-.59 2.8 0 .78.07 2.01.67 3.61.1.26-.03.55-.29.64s-.55-.04-.64-.29c-.5-1.31-.73-2.62-.73-3.96 0-1.2.23-2.29.68-3.24 1.33-2.79 4.28-4.6 7.51-4.6 4.54 0 8.25 3.51 8.25 7.83 0 1.62-1.38 2.94-3.08 2.94s-3.08-1.32-3.08-2.94c0-1.07-.93-1.94-2.08-1.94s-2.08.87-2.08 1.94c0 1.71.66 3.31 1.87 4.51.95.94 1.86 1.46 3.27 1.84a.51.51 0 0 1 .35.62.49.49 0 0 1-.47.38z"/>
        </symbol>
        <symbol id="i27" viewBox="0 0 24 24" stroke-width="2" stroke-linecap="round" stroke-linejoin="round">
            <line x1="3" x2="21" y1="6" y2="6"/>
            <line x1="3" x2="21" y1="12" y2="12"/>
            <line x1="3" x2="21" y1="18" y2="18"/>
        </symbol>
        <symbol id="i28" viewBox="0 0 24 24">
            <path d="M7 14C5.9 14 5 13.1 5 12S5.9 10 7 10 9 10.9 9 12 8.1 14 7 14M12.6 10C11.8 7.7 9.6 6 7 6C3.7 6 1 8.7 1 12S3.7 18 7 18C9.6 18 11.8 16.3 12.6 14H16V18H20V14H23V10H12.6Z" />
        </symbol>
        <symbol id="i29" viewBox="0 0 24 24">
            <path d="M10 7V9H9V15H10V17H6V15H7V9H6V7H10M16 7C17.11 7 18 7.9 18 9V15C18 16.11 17.11 17 16 17H12V7M16 9H14V15H16V9Z" />
        </symbol>
        <symbol id="i30" viewBox="0 0 24 24">
            <path d="M21 5V7H3V5H21M3 17H12V15H3V17M3 12H21V10H3V12M18 14C19.11 14 20 14.9 20 16S19.11 18 18 18 16 17.11 16 16 16.9 14 18 14M14 22V21C14 19.9 15.79 19 18 19S22 19.9 22 21V22H14Z" />
        </symbol>
        <symbol id="i31" viewBox="0 0 24 24">
            <path d="M12,3A9,9 0 0,0 3,12H0L4,16L8,12H5A7,7 0 0,1 12,5A7,7 0 0,1 19,12A7,7 0 0,1 12,19C10.5,19 9.09,18.5 7.94,17.7L6.5,19.14C8.04,20.3 9.94,21 12,21A9,9 0 0,0 21,12A9,9 0 0,0 12,3M14,12A2,2 0 0,0 12,10A2,2 0 0,0 10,12A2,2 0 0,0 12,14A2,2 0 0,0 14,12Z" />
        </symbol>
        <symbol id="i32" viewBox="0 0 24 24">
            <path d="M12,9A3,3 0 0,0 9,12A3,3 0 0,0 12,15A3,3 0 0,0 15,12A3,3 0 0,0 12,9M12,17A5,5 0 0,1 7,12A5,5 0 0,1 12,7A5,5 0 0,1 17,12A5,5 0 0,1 12,17M12,4.5C7,4.5 2.73,7.61 1,12C2.73,16.39 7,19.5 12,19.5C17,19.5 21.27,16.39 23,12C21.27,7.61 17,4.5 12,4.5Z" />
        </symbol>
        <symbol id="i33" viewBox="0 0 24 24">
            <path d="M11.83,9L15,12.16C15,12.11 15,12.05 15,12A3,3 0 0,0 12,9C11.94,9 11.89,9 11.83,9M7.53,9.8L9.08,11.35C9.03,11.56 9,11.77 9,12A3,3 0 0,0 12,15C12.22,15 12.44,14.97 12.65,14.92L14.2,16.47C13.53,16.8 12.79,17 12,17A5,5 0 0,1 7,12C7,11.21 7.2,10.47 7.53,9.8M2,4.27L4.28,6.55L4.73,7C3.08,8.3 1.78,10 1,12C2.73,16.39 7,19.5 12,19.5C13.55,19.5 15.03,19.2 16.38,18.66L16.81,19.08L19.73,22L21,20.73L3.27,3M12,7A5,5 0 0,1 17,12C17,12.64 16.87,13.26 16.64,13.82L19.57,16.75C21.07,15.5 22.27,13.86 23,12C21.27,7.61 17,4.5 12,4.5C10.6,4.5 9.26,4.75 8,5.2L10.17,7.35C10.74,7.13 11.35,7 12,7Z" />
        </symbol>
        <symbol id="i34" viewBox="0 0 192 512">
            <path d="M48 80a48 48 0 1 1 96 0A48 48 0 1 1 48 80zM0 224c0-17.7 14.3-32 32-32H96c17.7 0 32 14.3 32 32V448h32c17.7 0 32 14.3 32 32s-14.3 32-32 32H32c-17.7 0-32-14.3-32-32s14.3-32 32-32H64V256H32c-17.7 0-32-14.3-32-32z" />
        </symbol>
        <symbol id="i35" viewBox="0 0 24 24">
            <path d="M13.46,12L19,17.54V19H17.54L12,13.46L6.46,19H5V17.54L10.54,12L5,6.46V5H6.46L12,10.54L17.54,5H19V6.46L13.46,12Z"/>
        </symbol>
        <symbol id="i36" viewBox="0 0 24 24">
            <path d="M13,13H11V7H13M13,17H11V15H13M12,2A10,10 0 0,0 2,12A10,10 0 0,0 12,22A10,10 0 0,0 22,12A10,10 0 0,0 12,2Z"/>
        </symbol>
        <symbol id="i37" viewBox="0 0 24 24">
            <path d="M11 7V9H13V7H11M14 17V15H13V11H10V13H11V15H10V17H14M22 12C22 17.5 17.5 22 12 22C6.5 22 2 17.5 2 12C2 6.5 6.5 2 12 2C17.5 2 22 6.5 22 12M20 12C20 7.58 16.42 4 12 4C7.58 4 4 7.58 4 12C4 16.42 7.58 20 12 20C16.42 20 20 16.42 20 12Z"/>
        </symbol>
        <symbol id="i38" viewBox="0 0 24 24">
            <path d="M12,20C7.59,20 4,16.41 4,12C4,7.59 7.59,4 12,4C16.41,4 20,7.59 20,12C20,16.41 16.41,20 12,20M12,2C6.47,2 2,6.47 2,12C2,17.53 6.47,22 12,22C17.53,22 22,17.53 22,12C22,6.47 17.53,2 12,2M14.59,8L12,10.59L9.41,8L8,9.41L10.59,12L8,14.59L9.41,16L12,13.41L14.59,16L16,14.59L13.41,12L16,9.41L14.59,8Z" />
        </symbol>
        <symbol id="i39" viewBox="0 0 24 24">
            <path d="M12 2C6.5 2 2 6.5 2 12S6.5 22 12 22 22 17.5 22 12 17.5 2 12 2M12 20C7.59 20 4 16.41 4 12S7.59 4 12 4 20 7.59 20 12 16.41 20 12 20M16.59 7.58L10 14.17L7.41 11.59L6 13L10 17L18 9L16.59 7.58Z" />
        </symbol>
        <symbol id="i40" viewBox="0 0 24 24">
            <path d="M7 7H5A2 2 0 0 0 3 9V17H5V13H7V17H9V9A2 2 0 0 0 7 7M7 11H5V9H7M14 7H10V17H12V13H14A2 2 0 0 0 16 11V9A2 2 0 0 0 14 7M14 11H12V9H14M20 9V15H21V17H17V15H18V9H17V7H21V9Z" />
        </symbol>
    </defs>
</svg>